HIERARCHY
ROOT joint_Root
{
	OFFSET 0.0 0.0 0.0
	CHANNELS 6 Xposition Yposition Zposition Zrotation Xrotation Yrotation 
	JOINT Hips
	{
		OFFSET 4.5925 91.4895 -427.239
		CHANNELS 6 Xposition Yposition Zposition Zrotation Xrotation Yrotation 
		JOINT Spine
		{
			OFFSET 15.7357 0.0 0.0
			CHANNELS 6 Xposition Yposition Zposition Zrotation Xrotation Yrotation 
			JOINT Chest
			{
				OFFSET 8.98455 -0.406207 0.0
				CHANNELS 6 Xposition Yposition Zposition Zrotation Xrotation Yrotation 
				JOINT Neck
				{
					OFFSET 16.3773 0.0 0.0
					CHANNELS 6 Xposition Yposition Zposition Zrotation Xrotation Yrotation 
					JOINT Head
					{
						OFFSET 6.45672 0.0 0.0
						CHANNELS 6 Xposition Yposition Zposition Zrotation Xrotation Yrotation 
						End Site
						{
							OFFSET 0.0 0.0 0.0
						}
					}
				}
				JOINT Shoulder_L
				{
					OFFSET 12.9942 -0.242716 4.98039
					CHANNELS 6 Xposition Yposition Zposition Zrotation Xrotation Yrotation 
					JOINT UpperArm_L
					{
						OFFSET 5.34809 0.0 0.0
						CHANNELS 6 Xposition Yposition Zposition Zrotation Xrotation Yrotation 
						JOINT LowerArm_L
						{
							OFFSET 24.3286 1.87007e-05 0.0
							CHANNELS 6 Xposition Yposition Zposition Zrotation Xrotation Yrotation 
							JOINT Hand_L
							{
								OFFSET 22.2916 0.0 0.0
								CHANNELS 6 Xposition Yposition Zposition Zrotation Xrotation Yrotation 
								End Site
								{
									OFFSET 0.0 0.0 0.0
								}
							}
						}
					}
				}
				JOINT Shoulder_R
				{
					OFFSET 12.9945 -0.242716 -4.98039
					CHANNELS 6 Xposition Yposition Zposition Zrotation Xrotation Yrotation 
					JOINT UpperArm_R
					{
						OFFSET -5.34813 0.0 0.0
						CHANNELS 6 Xposition Yposition Zposition Zrotation Xrotation Yrotation 
						JOINT LowerArm_R
						{
							OFFSET -24.3289 0.000322201 0.0
							CHANNELS 6 Xposition Yposition Zposition Zrotation Xrotation Yrotation 
							JOINT Hand_R
							{
								OFFSET -22.2915 -0.000108084 0.0
								CHANNELS 6 Xposition Yposition Zposition Zrotation Xrotation Yrotation 
								End Site
								{
									OFFSET 0.0 0.0 0.0
								}
							}
						}
					}
				}
			}
		}
		JOINT UpperLeg_L
		{
			OFFSET -2.19248 -6.46944 0.0
			CHANNELS 6 Xposition Yposition Zposition Zrotation Xrotation Yrotation 
			JOINT LowerLeg_L
			{
				OFFSET 39.0811 0.0 -1.23785e-05
				CHANNELS 6 Xposition Yposition Zposition Zrotation Xrotation Yrotation 
				JOINT Foot_L
				{
					OFFSET 40.9854 0.0 -1.26872e-05
					CHANNELS 6 Xposition Yposition Zposition Zrotation Xrotation Yrotation 
					JOINT Toes_L
					{
						OFFSET 11.7543 0.0 0.0
						CHANNELS 6 Xposition Yposition Zposition Zrotation Xrotation Yrotation 
						End Site
						{
							OFFSET 0.0 0.0 0.0
						}
					}
				}
			}
		}
		JOINT UpperLeg_R
		{
			OFFSET -2.19251 6.46944 0.0
			CHANNELS 6 Xposition Yposition Zposition Zrotation Xrotation Yrotation 
			JOINT LowerLeg_R
			{
				OFFSET -39.0811 -0.00228153 -0.0401928
				CHANNELS 6 Xposition Yposition Zposition Zrotation Xrotation Yrotation 
				JOINT Foot_R
				{
					OFFSET -40.9854 0.0 0.0
					CHANNELS 6 Xposition Yposition Zposition Zrotation Xrotation Yrotation 
					JOINT Toes_R
					{
						OFFSET -11.7543 0.0 0.0
						CHANNELS 6 Xposition Yposition Zposition Zrotation Xrotation Yrotation 
						End Site
						{
							OFFSET 0.0 0.0 0.0
						}
					}
				}
			}
		}
	}
}
MOTION
Frames:	4
Frame Time:	0.0333333
0.000000 0.000000 0.000000 0.000000 0.000000 -0.000000 6.632690 90.443100 -3.289010 95.162500 -7.356200 12.377300 15.735700 0.000005 -0.000001 83.212100 82.412500 -84.994200 8.984550 -0.406207 -0.000000 7.279980 -1.779500 -3.447320 16.377300 -0.000001 -0.000001 7.122980 -0.021448 -3.005430 6.456720 -0.000001 -0.000000 -0.968264 1.501180 -3.008930 12.994200 -0.242716 4.980390 -92.079700 7.088910 -73.603200 5.348090 -0.000007 -0.000001 -63.601800 31.466300 -11.681700 24.328600 0.000019 0.000005 12.224700 28.692900 -24.287700 22.291600 -0.000001 0.000005 9.731840 5.319350 -0.477433 12.994500 -0.242716 -4.980390 88.274800 9.697370 -79.862100 -5.348130 -0.000001 -0.000004 -63.962400 32.079500 -8.991680 -24.328900 0.000322 -0.000009 2.963900 8.864430 -18.578300 -22.291500 -0.000108 -0.000004 14.556500 5.428870 -3.900360 -2.192480 -6.469440 -0.000000 174.700000 -17.777100 0.646686 39.081100 -0.000007 -0.000012 0.015860 -0.028645 28.971600 40.985400 -0.000006 -0.000013 5.560560 2.651610 -68.947900 11.754300 -0.000000 0.000003 -0.000144 -0.001400 -16.630800 -2.192510 6.469440 -0.000001 164.759000 13.859800 177.183000 -39.081100 -0.002282 -0.040193 -0.089477 0.134976 34.500900 -40.985400 0.000008 0.000006 0.451985 13.137400 -69.447800 -11.754300 -0.000006 -0.000006 -0.003199 -0.042831 -18.315000
0.000000 0.000000 0.000000 0.000000 0.000000 -0.000000 6.446500 90.468400 -3.347880 95.098600 -7.264080 12.489100 15.735700 0.000005 -0.000001 83.185900 82.395100 -84.966000 8.984550 -0.406207 -0.000000 7.313720 -1.790960 -3.442080 16.377300 -0.000001 -0.000001 7.528400 -0.150226 -3.028770 6.456720 -0.000001 -0.000000 -0.539494 1.322600 -2.807610 12.994200 -0.242716 4.980390 -92.081600 7.058850 -73.523200 5.348090 -0.000007 -0.000001 -62.531500 30.812300 -12.779600 24.328600 0.000019 0.000005 13.414800 29.759500 -25.664600 22.291600 -0.000001 0.000005 9.103140 5.334900 -0.929858 12.994500 -0.242716 -4.980390 88.280200 9.527370 -79.718500 -5.348130 -0.000001 -0.000004 -63.431000 31.519000 -9.774770 -24.328900 0.000322 -0.000009 3.042950 8.677620 -19.415600 -22.291500 -0.000108 -0.000004 14.530600 5.428090 -3.873740 -2.192480 -6.469440 -0.000000 174.904000 -17.625500 0.753381 39.081100 -0.000007 -0.000012 0.012877 -0.023263 28.964200 40.985400 -0.000006 -0.000013 5.426770 2.655700 -68.875200 11.754300 -0.000000 0.000003 -0.000149 -0.001445 -16.632500 -2.192510 6.469440 -0.000001 164.855000 14.019200 177.389000 -39.081100 -0.002282 -0.040193 -0.105015 0.158193 34.397600 -40.985400 0.000008 0.000006 0.448043 13.232800 -69.395700 -11.754300 -0.000006 -0.000006 -0.003224 -0.043106 -18.326200
0.000000 0.000000 0.000000 0.000000 0.000000 -0.000000 6.250590 90.498800 -3.431000 95.005300 -7.162700 12.511400 15.735700 0.000005 -0.000001 83.139300 82.428500 -84.909900 8.984550 -0.406207 -0.000000 7.245850 -1.794340 -3.423990 16.377300 -0.000001 -0.000001 8.099910 -0.328661 -3.027770 6.456720 -0.000001 -0.000000 -0.083451 1.143230 -2.650320 12.994200 -0.242716 4.980390 -92.083900 7.019800 -73.420100 5.348090 -0.000007 -0.000001 -60.913400 29.335300 -14.402700 24.328600 0.000019 0.000005 14.231200 29.708500 -27.101200 22.291600 -0.000001 0.000005 8.578040 5.345700 -1.248530 12.994500 -0.242716 -4.980390 88.276400 9.362020 -79.519700 -5.348130 -0.000001 -0.000004 -62.284100 31.091500 -10.986500 -24.328900 0.000322 -0.000009 3.203140 8.508970 -20.724000 -22.291500 -0.000108 -0.000004 14.818900 5.429120 -3.908470 -2.192480 -6.469440 -0.000000 175.131000 -17.511900 0.756115 39.081100 -0.000007 -0.000012 0.012652 -0.022861 28.960700 40.985400 -0.000006 -0.000013 5.304500 2.733920 -68.791100 11.754300 -0.000000 0.000003 -0.000141 -0.001379 -16.630000 -2.192510 6.469440 -0.000001 165.023000 14.245100 177.495000 -39.081100 -0.002282 -0.040193 -0.114628 0.173085 34.266200 -40.985400 0.000008 0.000006 0.344424 13.294500 -69.266800 -11.754300 -0.000006 -0.000006 -0.003331 -0.044291 -18.374500
0.000000 0.000000 0.000000 0.000000 0.000000 -0.000000 6.043010 90.525700 -3.525700 94.961100 -6.991530 12.632000 15.735700 0.000005 -0.000001 83.057500 82.429300 -84.848500 8.984550 -0.406207 -0.000000 7.241130 -1.815360 -3.463390 16.377300 -0.000001 -0.000001 8.715510 -0.487541 -3.085950 6.456720 -0.000001 -0.000000 0.414437 0.906146 -2.330750 12.994200 -0.242716 4.980390 -92.051300 6.878120 -73.349500 5.348090 -0.000007 -0.000001 -59.056400 26.773600 -16.498600 24.328600 0.000019 0.000005 14.893900 29.032200 -28.724800 22.291600 -0.000001 0.000005 8.602350 5.346660 -1.277330 12.994500 -0.242716 -4.980390 88.281700 9.174790 -79.345000 -5.348130 -0.000001 -0.000004 -60.648900 30.179800 -12.676700 -24.328900 0.000322 -0.000009 3.429180 8.366600 -22.389500 -22.291500 -0.000108 -0.000004 15.130200 5.437020 -4.181820 -2.192480 -6.469440 -0.000000 175.351000 -17.461500 0.855671 39.081100 -0.000007 -0.000012 0.010759 -0.019453 28.944100 40.985400 -0.000006 -0.000013 5.193900 2.855480 -68.690300 11.754300 -0.000000 0.000003 -0.000132 -0.001300 -16.627100 -2.192510 6.469440 -0.000001 165.099000 14.477600 177.695000 -39.081100 -0.002282 -0.040193 -0.125543 0.189769 34.172900 -40.985400 0.000008 0.000006 0.309347 13.379400 -69.186700 -11.754300 -0.000006 -0.000006 -0.003221 -0.043073 -18.324900
